<?xml version="1.0" standalone="no"?>
<!DOCTYPE svg PUBLIC "-//W3C//DTD SVG 20010904//EN"
 "http://www.w3.org/TR/2001/REC-SVG-20010904/DTD/svg10.dtd">
<svg version="1.0" xmlns="http://www.w3.org/2000/svg"
 width="256.000000pt" height="256.000000pt" viewBox="0 0 256.000000 256.000000"
 preserveAspectRatio="xMidYMid meet">
<metadata>
Created by potrace 1.11, written by Peter Selinger 2001-2013
</metadata>
<g transform="translate(0.000000,256.000000) scale(0.100000,-0.100000)"
fill="#000000" stroke="none">
<path d="M1298 2526 c-10 -7 -21 -24 -26 -37 -28 -72 73 -122 120 -59 43 59
-37 140 -94 96z"/>
<path d="M1052 2210 c-43 -40 -14 -120 44 -120 35 0 67 33 67 68 0 64 -65 94
-111 52z"/>
<path d="M1301 2109 c-18 -4 -47 -21 -64 -38 -26 -25 -31 -38 -31 -74 1 -24 7
-53 13 -65 17 -31 70 -62 106 -62 36 0 89 31 105 60 49 92 -29 201 -129 179z"/>
<path d="M1040 1751 c-62 -8 -108 -73 -96 -134 6 -33 46 -79 77 -90 15 -5 17
-26 17 -167 1 -170 2 -165 -57 -293 -16 -34 -72 -161 -125 -282 -54 -121 -111
-248 -127 -283 -16 -35 -29 -65 -29 -67 0 -3 -14 -34 -30 -70 -70 -153 -59
-248 34 -313 l39 -27 526 -2 c510 -1 527 -1 569 19 76 36 113 121 92 214 -8
33 -194 467 -303 704 -14 30 -36 82 -50 115 -14 33 -32 73 -40 89 -12 21 -15
67 -16 192 l0 164 34 14 c86 36 93 153 12 201 -28 17 -55 19 -267 19 -129 1
-246 -1 -260 -3z m492 -60 c4 -1 15 -12 23 -25 29 -44 -6 -85 -72 -86 l-23 0
0 -195 0 -196 121 -272 c110 -246 173 -389 262 -592 20 -46 30 -88 31 -122 1
-47 -3 -56 -32 -85 l-32 -33 -530 0 -530 0 -30 30 c-36 36 -44 88 -25 150 6
22 100 239 208 482 l197 442 0 196 0 195 -30 0 c-70 0 -96 84 -33 107 16 6
455 10 495 4z"/>
<path d="M1260 1440 l0 -31 67 3 c65 3 68 4 68 28 0 24 -3 25 -68 28 l-67 3 0
-31z"/>
<path d="M1264 1311 c-10 -10 -3 -51 9 -52 6 0 30 -1 52 -3 54 -3 73 8 68 37
-4 22 -9 24 -64 23 -33 0 -62 -2 -65 -5z"/>
<path d="M1262 1140 l-1 -30 65 0 c35 0 64 3 65 8 6 56 11 52 -61 52 l-67 0
-1 -30z"/>
<path d="M1387 857 c-158 -58 -191 -65 -307 -66 l-76 -1 -26 -57 c-146 -324
-181 -412 -186 -460 -4 -50 -2 -55 31 -88 23 -23 45 -35 63 -36 16 0 204 -1
417 -1 373 -1 389 0 415 19 78 58 71 98 -77 433 l-122 276 -40 0 c-22 0 -64
-8 -92 -19z"/>
</g>
</svg>
